<svg xmlns="http://www.w3.org/2000/svg" viewBox="0 0 81.77 23.32"><defs><style>.cls-1{isolation:isolate;}.cls-2{fill:#231f20;}.cls-3{fill:#00aeef;}.cls-4{fill:#fff;}</style></defs><title>symls_vector_logo</title><g id="Layer_1" data-name="Layer 1"><g class="cls-1"><path class="cls-2" d="M379.24,306a1.88,1.88,0,0,0,.38,1,2.57,2.57,0,0,0,1.93.56,3,3,0,0,0,1.31-.24.82.82,0,0,0,.1-1.45,17,17,0,0,0-2.92-.84,6,6,0,0,1-2.56-1.13,2.44,2.44,0,0,1-.74-1.91,3.35,3.35,0,0,1,1.16-2.54,4.69,4.69,0,0,1,3.27-1.06,6,6,0,0,1,3.25.8,3.4,3.4,0,0,1,1.45,2.75h-2.79a1.68,1.68,0,0,0-.3-.85,1.91,1.91,0,0,0-1.57-.57,2.25,2.25,0,0,0-1.3.29.8.8,0,0,0-.38.66.73.73,0,0,0,.41.7,19.52,19.52,0,0,0,2.91.77,5.26,5.26,0,0,1,2.49,1.18,2.66,2.66,0,0,1,.82,2,3.23,3.23,0,0,1-1.18,2.59,7.09,7.09,0,0,1-7.36-.06,3.45,3.45,0,0,1-1.2-2.7Z" transform="translate(-350.02 -291.42)"/><path class="cls-2" d="M401.51,298.75a3.19,3.19,0,0,1,1.24,1,3.13,3.13,0,0,1,.61,1.37,10,10,0,0,1,.1,1.57l0,6.72h-2.86v-6.78a2.23,2.23,0,0,0-.19-1,1.39,1.39,0,0,0-1.37-.74,1.62,1.62,0,0,0-1.6.95,3,3,0,0,0-.22,1.23v6.34h-2.81V303a3.55,3.55,0,0,0-.19-1.38,1.37,1.37,0,0,0-1.38-.77,1.62,1.62,0,0,0-1.6.77A3,3,0,0,0,391,303v6.41h-2.82V298.73h2.7v1.56a4.67,4.67,0,0,1,1-1.18,3.86,3.86,0,0,1,4.08-.09,3.17,3.17,0,0,1,.92,1.28,3.47,3.47,0,0,1,1.36-1.38,4.16,4.16,0,0,1,1.91-.44A3.77,3.77,0,0,1,401.51,298.75Z" transform="translate(-350.02 -291.42)"/><path class="cls-2" d="M406.44,311.41l.35,0a3.36,3.36,0,0,0,.78,0,1.35,1.35,0,0,0,.63-.22,1.5,1.5,0,0,0,.45-.7,1.63,1.63,0,0,0,.18-.64l-3.91-11.13H408l2.32,7.86,2.2-7.86h3l-3.65,10.48a14.44,14.44,0,0,1-1.68,3.76,3.15,3.15,0,0,1-2.46.73h-.6l-.67,0Z" transform="translate(-350.02 -291.42)"/><path class="cls-2" d="M420,309.37h-2.79V295H420Z" transform="translate(-350.02 -291.42)"/><path class="cls-2" d="M424.87,306a1.81,1.81,0,0,0,.39,1,2.53,2.53,0,0,0,1.92.56,3,3,0,0,0,1.31-.24.82.82,0,0,0,.1-1.45,16.67,16.67,0,0,0-2.92-.84,6,6,0,0,1-2.56-1.13,2.44,2.44,0,0,1-.74-1.91,3.35,3.35,0,0,1,1.16-2.54,4.69,4.69,0,0,1,3.27-1.06,6,6,0,0,1,3.26.8A3.42,3.42,0,0,1,431.5,302h-2.79a1.59,1.59,0,0,0-.3-.85,1.91,1.91,0,0,0-1.57-.57,2.25,2.25,0,0,0-1.3.29.83.83,0,0,0-.38.66.73.73,0,0,0,.41.7,19.52,19.52,0,0,0,2.91.77,5.26,5.26,0,0,1,2.49,1.18,2.66,2.66,0,0,1,.82,2,3.23,3.23,0,0,1-1.18,2.59,7.09,7.09,0,0,1-7.36-.06,3.45,3.45,0,0,1-1.2-2.7Z" transform="translate(-350.02 -291.42)"/></g><circle class="cls-3" cx="11.66" cy="11.66" r="11.66"/><circle class="cls-4" cx="11.66" cy="11.66" r="9.71"/><ellipse class="cls-3" cx="8.43" cy="7.77" rx="1.62" ry="1.94"/><path class="cls-3" d="M361.68,309.88a5.78,5.78,0,0,1-5.56-4.08,1,1,0,0,1,.33-1.38,1,1,0,0,1,1.37.33,1,1,0,0,1,.15.47,3.88,3.88,0,0,0,7.41,0,1,1,0,1,1,1.85.58A5.78,5.78,0,0,1,361.68,309.88Z" transform="translate(-350.02 -291.42)"/><ellipse class="cls-3" cx="14.9" cy="7.77" rx="1.62" ry="1.94"/></g></svg>